<svg width="83" height="83" viewBox="0 0 83 83" fill="none" xmlns="http://www.w3.org/2000/svg">
<rect width="83" height="83" rx="10" fill="black"/>
<path d="M15.941 66.4718L15.94 66.4692L15.94 66.4692C15.6475 65.7087 15.4734 64.897 15.4136 64.0383C15.3046 63.2661 15.25 62.4933 15.25 61.72C15.25 61.3227 15.2828 60.9383 15.3937 60.6278C15.4505 60.4687 15.5453 60.2785 15.7133 60.1217C15.8982 59.9491 16.138 59.85 16.4 59.85C16.7732 59.85 17.1226 60.0211 17.336 60.3625C17.5126 60.6451 17.55 60.9728 17.55 61.24C17.55 63.6257 18.1579 65.2972 19.2503 66.3897L19.256 66.3953L19.2615 66.4011C20.3342 67.5204 21.7056 68.09 23.44 68.09C25.1543 68.09 26.8332 67.6026 28.487 66.6012C30.1271 65.5755 31.6731 64.263 33.1234 62.6573L33.1285 62.6517L33.1285 62.6517C35.5956 59.9746 37.8308 56.9255 39.8325 53.5015L39.8343 53.4985C41.8995 50.0036 43.7528 46.4029 45.3942 42.6963L45.3977 42.6884L45.4014 42.6807C45.8186 41.7941 46.4251 40.3712 47.2237 38.4014C48.0243 36.3732 48.9047 34.1856 49.8647 31.8388C50.8274 29.4323 51.765 27.2618 52.6777 25.3284C53.4781 23.5144 54.149 22.065 54.6892 20.9846L54.6958 20.9714L54.7028 20.9586C55.3387 19.8025 56.1789 18.8174 57.2196 18.008C57.4705 17.8128 57.7488 17.6196 58.054 17.4281C57.9829 17.4293 57.9149 17.4299 57.8501 17.43C55.8464 17.483 53.8425 17.6149 51.8385 17.8259C49.8617 18.034 48.1103 18.4224 46.5782 18.9842L46.5677 18.988L46.5572 18.9915C45.0554 19.4921 44.0709 20.1877 43.499 21.0235L43.4967 21.0269C43.1101 21.5852 42.91 22.2338 42.91 23C42.91 23.7677 43.1116 24.522 43.5337 25.2723C43.9532 26.0182 44.4646 26.5138 45.0554 26.8092L45.1643 26.8636L45.2503 26.9497C45.3213 27.0206 45.3991 27.1066 45.464 27.204C45.5156 27.2813 45.63 27.4679 45.63 27.72C45.63 28.0787 45.4182 28.3225 45.3103 28.4303C45.1815 28.5592 45.0225 28.6691 44.8659 28.7631L44.8412 28.7779L44.8154 28.7908C44.4324 28.9824 44.0191 29.0167 43.6129 28.9354L43.4786 28.9086L43.3625 28.836C42.8789 28.5337 42.3065 28.0717 41.6532 27.4729L41.6412 27.4619L41.6297 27.4503C40.9675 26.7882 40.3593 26.0972 39.8055 25.3773L39.7941 25.3624L39.7834 25.3469C39.286 24.6285 38.9209 23.9745 38.7285 23.3972C38.4911 22.6849 38.37 21.9649 38.37 21.24C38.37 19.7591 38.9053 18.5092 39.9838 17.5576L39.9917 17.5506L39.9999 17.5438C41.0571 16.6628 42.3839 16.0075 43.954 15.5589L44.1591 16.277L43.954 15.5589C45.4931 15.1191 47.1356 14.8183 48.8798 14.6542C50.6586 14.439 52.3614 14.3305 53.9879 14.33C55.6411 14.2768 57.059 14.25 58.24 14.25H66.88C66.9716 14.25 67.152 14.2575 67.3354 14.3492C67.4377 14.4003 67.5595 14.4872 67.654 14.629C67.7517 14.7755 67.79 14.9354 67.79 15.08C67.79 15.4214 67.6084 15.6909 67.492 15.8405C67.3548 16.0168 67.1727 16.1941 66.9681 16.3694L66.9602 16.3762L66.9601 16.3762C66.7885 16.5192 66.6256 16.6434 66.4775 16.736C66.4035 16.7823 66.319 16.8296 66.2285 16.8673C66.1504 16.8998 66.0193 16.9462 65.8598 16.9498C64.5605 16.9978 63.3981 17.4794 62.3509 18.4292C61.2836 19.4467 60.34 20.6191 59.5209 21.9496C58.7313 23.2658 58.0775 24.4698 57.5572 25.5625L57.5541 25.569L57.5508 25.5754C57.2339 26.2092 56.7302 27.243 56.0384 28.6798C55.4018 30.0592 54.6852 31.6517 53.8884 33.4578C53.1411 35.2192 52.3672 36.9804 51.5668 38.7416C50.8211 40.499 50.1538 42.0206 49.5651 43.3052C48.1795 46.5029 46.8735 49.4879 45.6473 52.2602C44.4619 55.0079 43.1407 57.5966 41.6831 60.0259C40.2134 62.4754 38.3942 64.8633 36.2297 67.1902M15.941 66.4718L35.68 66.68M15.941 66.4718C16.7356 68.515 17.9473 70.092 19.5944 71.1509C21.1994 72.1827 22.9122 72.71 24.72 72.71C26.7308 72.71 28.8201 72.1356 30.9786 71.0292M15.941 66.4718L30.64 70.36M36.2297 67.1902C36.2295 67.1904 36.2293 67.1906 36.2291 67.1908L35.68 66.68M36.2297 67.1902C36.2299 67.19 36.2301 67.1898 36.2303 67.1896L35.68 66.68M36.2297 67.1902C34.8271 68.7048 33.072 69.9821 30.9786 71.0292M35.68 66.68C34.3467 68.12 32.6667 69.3467 30.64 70.36M30.9786 71.0292C30.9798 71.0286 30.981 71.028 30.9822 71.0274L30.64 70.36M30.9786 71.0292C30.9776 71.0298 30.9765 71.0303 30.9754 71.0308L30.64 70.36M59.6 16.6C60.3467 16.4933 61.1467 16.4133 62 16.36C61.1655 16.6845 60.4216 17.0091 59.7684 17.3336C59.7476 17.3366 59.7268 17.3395 59.7061 17.3425L59.6 16.6ZM59.6 16.6C59.5845 16.6011 59.5691 16.6022 59.5537 16.6033L59.6 16.6ZM66.5376 15.75H66.88C66.8774 15.75 66.8578 15.75 66.8267 15.7448C66.7976 15.7399 66.7373 15.7272 66.6646 15.6908C66.6524 15.6847 66.6395 15.6778 66.6262 15.67C66.5981 15.696 66.5685 15.7227 66.5376 15.75ZM66.2961 15C66.3049 14.9434 66.3208 14.9077 66.3254 14.8978C66.3279 14.8923 66.3295 14.8895 66.3295 14.8895C66.3295 14.8895 66.3237 14.8993 66.308 14.9195C66.2908 14.9416 66.2678 14.9684 66.2381 15L66.2961 15ZM16.7977 61.1461C16.7979 61.1502 16.7981 61.1543 16.7983 61.1585C16.8013 61.1472 16.8041 61.1385 16.8063 61.1323C16.807 61.1303 16.8076 61.1287 16.8081 61.1275C16.8064 61.131 16.8031 61.1374 16.7977 61.1461ZM16.0417 61.1138C16.0399 61.1092 16.0392 61.1067 16.0393 61.1067C16.0393 61.1066 16.0399 61.1086 16.0408 61.113C16.0409 61.1138 16.0411 61.1148 16.0413 61.1157C16.0414 61.1151 16.0415 61.1144 16.0417 61.1138Z" fill="white" stroke="white" stroke-width="1.5"/>
</svg>
